<?xml version="1.0" encoding="utf-8"?>
<!-- Generator: Adobe Illustrator 16.0.3, SVG Export Plug-In . SVG Version: 6.00 Build 0)  -->
<!DOCTYPE svg PUBLIC "-//W3C//DTD SVG 1.1//EN" "http://www.w3.org/Graphics/SVG/1.1/DTD/svg11.dtd">
<svg version="1.1" id="Layer_1" xmlns="http://www.w3.org/2000/svg" xmlns:xlink="http://www.w3.org/1999/xlink" x="0px" y="0px"
	 width="612px" height="792px" viewBox="0 0 612 792" enable-background="new 0 0 612 792" xml:space="preserve">
<title>Glass, magnifying, search, zoom</title>
<g>
	<path d="M257.996,468.866c-103.723-0.067-187.752-84.207-187.685-187.93S154.519,93.184,258.242,93.251
		c103.723,0.068,187.752,84.207,187.685,187.93c-0.033,49.797-19.841,97.543-55.069,132.738
		C355.647,449.188,307.831,468.962,257.996,468.866z M257.996,131.482c-82.609,0.058-149.53,67.072-149.473,149.681
		c0.058,82.609,67.072,149.53,149.681,149.473c82.608-0.058,149.53-67.072,149.473-149.681
		c-0.027-39.66-15.805-77.685-43.862-105.714C335.768,147.158,297.686,131.41,257.996,131.482z"/>
	<path d="M511.594,553.781c-5.072-0.001-9.936-2.017-13.521-5.604L363.814,413.92c-7.337-7.598-7.127-19.705,0.471-27.042
		c7.411-7.158,19.161-7.158,26.572,0l134.258,134.257c7.468,7.47,7.466,19.579-0.004,27.047
		C521.525,551.766,516.664,553.78,511.594,553.781L511.594,553.781z"/>
</g>
</svg>
